<?xml version="1.0" encoding="utf-8"?>
<svg version="1.1" xmlns:xlink="http://www.w3.org/1999/xlink" width="80px" height="48px" xmlns="http://www.w3.org/2000/svg">
  <g transform="matrix(1 0 0 1 -398 -396 )">
    <path d="M 398 396  L 478 396  L 478 444  L 398 444  L 398 396  " fill-rule="nonzero" fill="#cccccc" stroke="none" />
    <path d="M 401 399  L 475 399  L 475 441  L 401 441  L 401 399  " fill-rule="nonzero" fill="#ffffff" stroke="none" />
    <path d="M 443.2 410.4  C 441.184 410.4  439.6 408.816  439.6 406.8  C 439.6 404.784  441.184 403.2  443.2 403.2  C 445.216 403.2  446.8 404.784  446.8 406.8  C 446.8 408.816  445.216 410.4  443.2 410.4  " fill-rule="nonzero" fill="#cccccc" stroke="none" />
    <path d="M 402 440  L 402 418  L 420 408  L 445.2 425.6  L 459.6 414  L 474 425.6  L 474 440  L 402 440  " fill-rule="nonzero" fill="#169bd5" stroke="none" />
  </g>
</svg>