<?xml version="1.0" encoding="utf-8"?>
<svg version="1.1" xmlns:xlink="http://www.w3.org/1999/xlink" width="18px" height="18px" preserveAspectRatio="xMinYMid meet" viewBox="172 1118  18 16" xmlns="http://www.w3.org/2000/svg">
  <path d="M 181.5 1128  L 181.5 1210  " stroke-width="1" stroke="#0033ff" fill="none" />
  <path d="M 181.5 1123  A 3 3 0 0 0 178.5 1126 A 3 3 0 0 0 181.5 1129 A 3 3 0 0 0 184.5 1126 A 3 3 0 0 0 181.5 1123 Z M 181.5 1124  A 2 2 0 0 1 183.5 1126 A 2 2 0 0 1 181.5 1128 A 2 2 0 0 1 179.5 1126 A 2 2 0 0 1 181.5 1124 Z M 175.2 1209  L 181.5 1215  L 187.8 1209  L 175.2 1209  Z " fill-rule="nonzero" fill="#0033ff" stroke="none" />
</svg>