<?xml version="1.0" encoding="utf-8"?>
<svg version="1.1" xmlns:xlink="http://www.w3.org/1999/xlink" width="10px" height="49px" preserveAspectRatio="xMidYMin meet" viewBox="83 222  8 49" xmlns="http://www.w3.org/2000/svg">
  <path d="M 87.5 227  L 87.5 261  " stroke-width="1" stroke="#0033ff" fill="none" />
  <path d="M 87.5 222  A 3 3 0 0 0 84.5 225 A 3 3 0 0 0 87.5 228 A 3 3 0 0 0 90.5 225 A 3 3 0 0 0 87.5 222 Z M 87.5 223  A 2 2 0 0 1 89.5 225 A 2 2 0 0 1 87.5 227 A 2 2 0 0 1 85.5 225 A 2 2 0 0 1 87.5 223 Z M 81.2 260  L 87.5 266  L 93.8 260  L 81.2 260  Z " fill-rule="nonzero" fill="#0033ff" stroke="none" />
</svg>