<?xml version="1.0" encoding="utf-8"?>
<svg version="1.1" xmlns:xlink="http://www.w3.org/1999/xlink" width="10px" height="538px" preserveAspectRatio="xMidYMin meet" viewBox="83 850  8 538" xmlns="http://www.w3.org/2000/svg">
  <path d="M 87.5 855  L 87.5 1378  " stroke-width="1" stroke="#0033ff" fill="none" />
  <path d="M 87.5 850  A 3 3 0 0 0 84.5 853 A 3 3 0 0 0 87.5 856 A 3 3 0 0 0 90.5 853 A 3 3 0 0 0 87.5 850 Z M 87.5 851  A 2 2 0 0 1 89.5 853 A 2 2 0 0 1 87.5 855 A 2 2 0 0 1 85.5 853 A 2 2 0 0 1 87.5 851 Z M 81.2 1377  L 87.5 1383  L 93.8 1377  L 81.2 1377  Z " fill-rule="nonzero" fill="#0033ff" stroke="none" />
</svg>