<?xml version="1.0" encoding="utf-8"?>
<svg version="1.1" xmlns:xlink="http://www.w3.org/1999/xlink" width="11px" height="10px" xmlns="http://www.w3.org/2000/svg">
  <g transform="matrix(1 0 0 1 -158 -353 )">
    <path d="M 10.8897795591183 1.03092783505156  C 10.9632598530394 1.14547537227949  11 1.27720504009165  11 1.42611683848799  C 11 1.5750286368843  10.9632598530394 1.70675830469644  10.8897795591183 1.82130584192439  L 5.75350701402801 9.82817869415808  C 5.68002672010689 9.94272623138603  5.59552438209757 10  5.5 10  C 5.40447561790243 10  5.31997327989311 9.94272623138603  5.24649298597199 9.82817869415808  L 0.11022044088171 1.82130584192439  C 0.0367401469605909 1.70675830469644  0 1.5750286368843  0 1.42611683848799  C 0 1.27720504009165  0.0367401469605909 1.14547537227949  0.11022044088171 1.03092783505156  L 0.661322645290574 0.171821305841924  C 0.734802939211755 0.0572737686139746  0.819305277221133 0  0.914829659318613 0  C 1.01035404141616 0  1.09485637942547 0.0572737686139746  1.16833667334672 0.171821305841924  L 5.5 6.92439862542955  L 9.83166332665328 0.171821305841924  C 9.90514362057453 0.0572737686139746  9.98964595858384 0  10.0851703406814 0  C 10.1806947227789 0  10.2651970607882 0.0572737686139746  10.3386773547094 0.171821305841924  L 10.8897795591183 1.03092783505156  Z " fill-rule="nonzero" fill="#666666" stroke="none" transform="matrix(1 0 0 1 158 353 )" />
  </g>
</svg>