<?xml version="1.0" encoding="utf-8"?>
<svg version="1.1" xmlns:xlink="http://www.w3.org/1999/xlink" width="10px" height="126px" preserveAspectRatio="xMidYMin meet" viewBox="177 943  8 126" xmlns="http://www.w3.org/2000/svg">
  <path d="M 181.5 948  L 181.5 1059  " stroke-width="1" stroke="#0033ff" fill="none" />
  <path d="M 181.5 943  A 3 3 0 0 0 178.5 946 A 3 3 0 0 0 181.5 949 A 3 3 0 0 0 184.5 946 A 3 3 0 0 0 181.5 943 Z M 181.5 944  A 2 2 0 0 1 183.5 946 A 2 2 0 0 1 181.5 948 A 2 2 0 0 1 179.5 946 A 2 2 0 0 1 181.5 944 Z M 175.2 1058  L 181.5 1064  L 187.8 1058  L 175.2 1058  Z " fill-rule="nonzero" fill="#0033ff" stroke="none" />
</svg>