<?xml version="1.0" encoding="utf-8"?>
<svg version="1.1" xmlns:xlink="http://www.w3.org/1999/xlink" width="18px" height="19px" preserveAspectRatio="xMidYMin meet" viewBox="490 1185  16 19" xmlns="http://www.w3.org/2000/svg">
  <path d="M 498.5 949  L 498.5 1193  " stroke-width="1" stroke="#0033ff" fill="none" />
  <path d="M 498.5 944  A 3 3 0 0 0 495.5 947 A 3 3 0 0 0 498.5 950 A 3 3 0 0 0 501.5 947 A 3 3 0 0 0 498.5 944 Z M 498.5 945  A 2 2 0 0 1 500.5 947 A 2 2 0 0 1 498.5 949 A 2 2 0 0 1 496.5 947 A 2 2 0 0 1 498.5 945 Z M 492.2 1192  L 498.5 1198  L 504.8 1192  L 492.2 1192  Z " fill-rule="nonzero" fill="#0033ff" stroke="none" />
</svg>