<?xml version="1.0" encoding="utf-8"?>
<svg version="1.1" xmlns:xlink="http://www.w3.org/1999/xlink" width="10px" height="469px" preserveAspectRatio="xMidYMin meet" viewBox="83 326  8 469" xmlns="http://www.w3.org/2000/svg">
  <path d="M 87.5 331  L 87.5 785  " stroke-width="1" stroke="#0033ff" fill="none" />
  <path d="M 87.5 326  A 3 3 0 0 0 84.5 329 A 3 3 0 0 0 87.5 332 A 3 3 0 0 0 90.5 329 A 3 3 0 0 0 87.5 326 Z M 87.5 327  A 2 2 0 0 1 89.5 329 A 2 2 0 0 1 87.5 331 A 2 2 0 0 1 85.5 329 A 2 2 0 0 1 87.5 327 Z M 81.2 784  L 87.5 790  L 93.8 784  L 81.2 784  Z " fill-rule="nonzero" fill="#0033ff" stroke="none" />
</svg>