<?xml version="1.0" encoding="utf-8"?>
<svg version="1.1" xmlns:xlink="http://www.w3.org/1999/xlink" width="31px" height="20px" xmlns="http://www.w3.org/2000/svg">
  <defs>
    <linearGradient gradientUnits="userSpaceOnUse" x1="15.5" y1="20" x2="15.5" y2="20" id="LinearGradient44">
      <stop id="Stop45" stop-color="#020300" offset="0" />
      <stop id="Stop46" stop-color="#f2f2f2" offset="0" />
      <stop id="Stop47" stop-color="#ffffff" offset="1" />
      <stop id="Stop48" stop-color="#e4e4e4" offset="1" />
    </linearGradient>
    <mask fill="white" id="clip49">
      <path d="M 31 0  L 0 0  L 0 9.23446301597562  L 15.3857493857494 19.98001998002  L 31 9.23446301597562  L 31 0  Z " fill-rule="evenodd" />
    </mask>
  </defs>
  <g transform="matrix(1 0 0 1 -337 -1000 )">
    <path d="M 31 0  L 0 0  L 0 9.23446301597562  L 15.3857493857494 19.98001998002  L 31 9.23446301597562  L 31 0  Z " fill-rule="nonzero" fill="url(#LinearGradient44)" stroke="none" transform="matrix(1 0 0 1 337 1000 )" />
    <path d="M 31 0  L 0 0  L 0 9.23446301597562  L 15.3857493857494 19.98001998002  L 31 9.23446301597562  L 31 0  Z " stroke-width="2" stroke="#797979" fill="none" transform="matrix(1 0 0 1 337 1000 )" mask="url(#clip49)" />
  </g>
</svg>